<?xml version="1.0" encoding="iso-8859-1"?>
<!-- Generator: Adobe Illustrator 16.0.0, SVG Export Plug-In . SVG Version: 6.00 Build 0)  -->
<!DOCTYPE svg PUBLIC "-//W3C//DTD SVG 1.1//EN" "http://www.w3.org/Graphics/SVG/1.1/DTD/svg11.dtd">
<svg version="1.1" id="Layer_1" xmlns="http://www.w3.org/2000/svg" xmlns:xlink="http://www.w3.org/1999/xlink" x="0px" y="0px"
	 width="64px" height="64.192px" viewBox="0 0 64 64.192" style="enable-background:new 0 0 64 64.192;" xml:space="preserve">
<g>
	<path style="fill:#35516D;" d="M62.796,11.392l-7.909,7.861l-8.745-1.894l-1.846-8.755l7.928-7.886
		c-1.236-0.339-2.521-0.573-3.866-0.579C40.06,0.113,33.319,6.814,33.292,15.113c-0.008,2.756,0.779,5.309,2.07,7.537L22.591,35.345
		c-2.218-1.303-4.766-2.108-7.525-2.116C6.769,33.2,0.026,39.908,0,48.207c-0.008,1.323,0.215,2.588,0.533,3.815l7.911-7.862
		l8.746,1.893l1.843,8.759l-7.927,7.88c1.24,0.342,2.521,0.581,3.865,0.585c8.298,0.018,15.04-6.68,15.068-14.978
		c0.008-2.475-0.642-4.782-1.698-6.844L41.43,28.444c2.056,1.068,4.359,1.731,6.837,1.741c8.297,0.025,15.039-6.68,15.064-14.978
		C63.339,13.887,63.117,12.618,62.796,11.392z"/>
	<g>
		<path style="fill:#35516D;" d="M1.392,1.237L2.644,0l7.714,4.258l3.983,4.003l2.974,4.992l27.972,28.152
			c0,0,2.251-2.239,3.124-3.113c0.88-0.865,1.62-0.115,1.62-0.115s0.503,0.497,1.246,1.254c0.746,0.747-0.012,3.986-0.012,3.986
			l1.985,2.002c0,0,9.363,9.414,10.172,10.23c0.808,0.812,0.733,3.241-0.012,3.988c-0.748,0.749-2,1.987-2,1.987
			s-1.253,1.246-2.006,1.989c-0.749,0.745-3.177,0.802-3.991-0.014c-0.806-0.807-10.165-10.229-10.165-10.229l-1.991-2.002
			c0,0-3.24,0.74-3.987-0.014c-0.745-0.754-1.243-1.249-1.243-1.249s-0.744-0.752,0.131-1.619c0.877-0.871,3.124-3.105,3.124-3.105
			L13.312,17.23l-4.978-3.001l-3.979-4.004L0.14,2.483L1.392,1.237z"/>
	</g>
</g>
</svg>
