<?xml version="1.0" encoding="iso-8859-1"?>
<!-- Generator: Adobe Illustrator 16.0.0, SVG Export Plug-In . SVG Version: 6.00 Build 0)  -->
<!DOCTYPE svg PUBLIC "-//W3C//DTD SVG 1.1//EN" "http://www.w3.org/Graphics/SVG/1.1/DTD/svg11.dtd">
<svg version="1.1" id="Layer_1" xmlns="http://www.w3.org/2000/svg" xmlns:xlink="http://www.w3.org/1999/xlink" x="0px" y="0px"
	 width="64px" height="64.192px" viewBox="0 0 64 64.192" style="enable-background:new 0 0 64 64.192;" xml:space="preserve">
<g>
	<g>
		<path style="fill:#35516D;" d="M54.566,41.331l-9.426,6.285v9.43l9.426,6.29L64,57.046v-9.43L54.566,41.331z M54.566,53.57
			l-6.875-4.59l6.875-4.587l6.879,4.587L54.566,53.57z"/>
	</g>
	<g>
		<path style="fill:#35516D;" d="M49.14,0.664L37.714,8.285v11.43l11.426,7.616l11.436-7.616V8.285L49.14,0.664z M49.14,15.491
			l-8.332-5.55l8.332-5.562l8.336,5.562L49.14,15.491z"/>
	</g>
	<g>
		<path style="fill:#35516D;" d="M19.711,17.336L0,30.477v19.715l19.711,13.14l19.714-13.14V30.477L19.711,17.336z M19.711,42.91
			L5.34,33.327l14.371-9.586l14.375,9.586L19.711,42.91z"/>
	</g>
</g>
</svg>
